HIERARCHY
ROOT Bip001
{
 OFFSET 0.000000 0.000000 0.000000
 CHANNELS 6 Xposition Yposition Zposition Xrotation Yrotation Zrotation
 JOINT Bip001_Pelvis
 {
  OFFSET -0.041037 -0.005508 0.164154
  CHANNELS 3 Xrotation Yrotation Zrotation
  JOINT Bip001_Spine
  {
   OFFSET 0.044300 0.005946 0.077000
   CHANNELS 3 Xrotation Yrotation Zrotation
   JOINT Bip001_Spine1
   {
    OFFSET -0.000001 -0.000000 0.153780
    CHANNELS 3 Xrotation Yrotation Zrotation
    JOINT Bip001_Spine2
    {
     OFFSET 0.018201 0.002443 0.152706
     CHANNELS 3 Xrotation Yrotation Zrotation
     JOINT Bip001_Neck
     {
      OFFSET -0.043344 -0.005818 0.211513
      CHANNELS 3 Xrotation Yrotation Zrotation
      JOINT Bip001_Head
      {
       OFFSET -0.023929 -0.003212 0.056390
       CHANNELS 3 Xrotation Yrotation Zrotation
       End Site
       {
        OFFSET 0.000000 0.000000 0.000000
       }
      }
     }
     JOINT Bip001_L_Clavicle
     {
      OFFSET -0.029718 -0.053419 0.132514
      CHANNELS 3 Xrotation Yrotation Zrotation
      JOINT Bip001_L_UpperArm
      {
       OFFSET 0.024789 -0.162222 -0.026916
       CHANNELS 3 Xrotation Yrotation Zrotation
       JOINT Bip001_L_Forearm
       {
        OFFSET -0.026577 -0.286863 -0.153731
        CHANNELS 3 Xrotation Yrotation Zrotation
        JOINT Bip001_L_Hand
        {
         OFFSET -0.089077 -0.239781 -0.130038
         CHANNELS 3 Xrotation Yrotation Zrotation
         End Site
         {
          OFFSET 0.000000 0.000000 0.000000
         }
        }
       }
      }
     }
     JOINT Bip001_R_Clavicle
     {
      OFFSET -0.042752 0.043692 0.132514
      CHANNELS 3 Xrotation Yrotation Zrotation
      JOINT Bip001_R_UpperArm
      {
       OFFSET -0.018865 0.163017 -0.026916
       CHANNELS 3 Xrotation Yrotation Zrotation
       JOINT Bip001_R_Forearm
       {
        OFFSET -0.101279 0.269702 -0.153731
        CHANNELS 3 Xrotation Yrotation Zrotation
        JOINT Bip001_R_Hand
        {
         OFFSET -0.149152 0.207806 -0.130038
         CHANNELS 3 Xrotation Yrotation Zrotation
         End Site
         {
          OFFSET 0.000000 0.000000 0.000000
         }
        }
       }
      }
     }
    }
   }
  }
  JOINT Bip001_L_Thigh
  {
   OFFSET 0.011035 -0.082219 0.000000
   CHANNELS 3 Xrotation Yrotation Zrotation
   JOINT Bip001_L_Calf
   {
    OFFSET 0.010188 -0.013597 -0.536358
    CHANNELS 3 Xrotation Yrotation Zrotation
    JOINT Bip001_L_Foot
    {
     OFFSET 0.072725 0.000243 -0.475449
     CHANNELS 3 Xrotation Yrotation Zrotation
     End Site
     {
      OFFSET 0.000000 0.000000 0.000000
     }
    }
   }
  }
  JOINT Bip001_R_Thigh
  {
   OFFSET -0.011035 0.082219 0.000000
   CHANNELS 3 Xrotation Yrotation Zrotation
   JOINT Bip001_R_Calf
   {
    OFFSET 0.006242 0.015802 -0.536358
    CHANNELS 3 Xrotation Yrotation Zrotation
    JOINT Bip001_R_Foot
    {
     OFFSET 0.070215 0.018943 -0.475449
     CHANNELS 3 Xrotation Yrotation Zrotation
     End Site
     {
      OFFSET 0.000000 0.000000 0.000000
     }
    }
   }
  }
 }
}
MOTION
Frames: 6
Frame Time: 0.033333
0.000000 0.606572 0.000000 -89.955543 -0.464056 42.172686 18.612249 -6.391226 77.130349 4.364231 -24.046689 1.304776 1.080773 -5.985485 0.231142 0.419340 -2.392704 0.247535 -12.139008 15.836392 1.473006 -7.997762 5.698670 -40.312550 -7.157818 -0.788800 -3.037018 54.409581 45.159458 -21.978951 31.354774 26.992981 -94.491121 -56.374006 -26.295979 -29.519344 15.791918 2.029090 0.398275 -68.704198 -13.488577 -22.233436 -20.542790 19.066542 58.167619 16.079873 22.577993 11.583859 -9.947916 54.957831 0.784150 30.541593 -67.107966 22.895003 -5.915372 24.149350 -1.983994 7.376624 25.251238 11.305960 20.270353 -81.468832 14.660462 0.136908 -15.941125 5.001934
0.000000 0.589214 0.000000 -88.982831 1.095795 130.866340 18.740232 -6.281113 77.392627 2.574748 -22.946425 -2.269919 0.491471 -5.773363 -2.645434 0.321291 -2.241788 -2.701951 -12.505689 16.114940 1.633244 -9.379612 3.489843 -37.126823 -10.342322 -0.960427 -4.668995 47.018621 42.081787 -25.046831 27.500721 26.806578 -86.587794 -68.803151 -25.579396 -43.363923 16.459783 2.195337 0.416422 -69.652024 -15.688128 -29.079806 -16.431006 17.508617 49.008673 17.200507 20.798206 11.710264 -4.969975 46.620108 -3.200164 32.077873 -67.821335 24.078626 -3.331474 34.471986 -8.127954 3.512612 37.637318 5.093248 158.190243 -82.978872 151.887347 0.779119 -13.644433 -2.355764
-0.173205 0.588797 0.023152 -88.658987 1.746447 134.662825 18.447233 -6.211641 76.635988 0.646562 -22.835068 -5.487213 -0.043741 -5.709447 -5.343387 0.209843 -2.259876 -5.395262 -13.451361 16.711164 1.936198 -9.075094 3.011535 -33.057252 -11.115863 -0.952237 -4.519840 36.460315 38.784904 -23.997757 17.971071 25.400307 -66.350213 -64.605884 -19.719379 -42.436089 18.091518 2.273512 -0.043190 -70.148603 -17.367238 -33.867657 -13.634854 16.258867 43.005819 18.796564 20.219712 9.669400 -2.701654 35.526471 -5.161356 25.854115 -63.556420 18.183459 1.492970 35.084805 -13.897216 -0.570023 50.800437 3.009261 168.201545 -78.159022 161.684736 1.315757 -8.447744 -2.249105
-0.282321 0.602387 -0.109910 -89.385070 1.392753 134.849537 18.520894 -5.910973 76.955758 -2.249012 -22.480477 -8.565157 -0.769914 -5.612333 -7.453262 -0.052665 -2.228606 -7.476738 -13.705935 16.383077 1.984866 -8.472567 2.068805 -26.592183 -10.015060 -0.942345 -4.412348 28.919906 37.027848 -25.872323 7.262635 18.525816 -40.266309 -52.472676 -25.198686 -34.445765 19.329645 2.611249 0.360846 -70.236636 -19.874286 -37.580122 -13.010191 15.498682 41.897884 15.483311 20.154471 9.327806 -3.450307 22.689824 -5.471924 17.094964 -52.890897 9.881538 6.419705 27.110545 -18.929701 -7.381103 59.725535 4.932116 162.123031 -81.483014 155.728611 0.218797 -1.690915 0.137294
-0.429603 0.629587 -0.197152 -92.451327 0.055146 135.287907 18.868696 -5.953488 76.514998 -6.393798 -22.415840 -10.762679 -1.788510 -5.544784 -8.560203 -0.474847 -2.253520 -8.515272 -13.266254 16.107411 1.896163 -7.320475 0.460050 -18.126710 -7.366959 -0.630992 -5.030627 25.002583 36.300751 -27.084366 0.847706 7.473995 -15.102919 -31.916174 -33.817797 -15.195004 19.960177 3.092506 1.450979 -70.154221 -21.841568 -39.627185 -13.942696 15.415754 43.954774 15.170308 17.761922 12.830045 -5.716333 7.913141 -3.500284 8.922081 -33.775268 3.458603 10.440239 8.534903 -22.082670 -16.774761 63.945938 9.562776 35.911328 -84.771301 29.898882 -1.264306 3.244913 2.930818
-0.555291 0.660453 -0.084630 -95.032350 -0.154778 133.522181 18.861459 -6.117916 76.084083 -9.823728 -21.666090 -12.541696 -2.597071 -5.330393 -9.482214 -0.763169 -2.225960 -9.460554 -13.298493 15.622187 1.730900 -5.228005 -1.342919 -7.410817 -4.702683 -0.394093 -6.081148 21.743670 34.310521 -23.162515 -0.595612 -1.509757 2.491093 -18.924044 -9.463686 8.332440 19.682372 3.519453 2.500852 -69.108849 -23.913771 -38.230778 -14.755947 15.684361 45.581429 14.641572 16.571732 12.861442 -5.282013 4.973781 -1.428062 9.343246 -33.624187 3.463173 -1.554475 -14.840090 -17.090288 -24.848496 65.607687 13.956082 9.195991 -66.875831 3.387054 -3.945029 5.790198 4.729943
